PathFileType  4	(X/Y/Z) C:\Users\antoi\Documents\MyRepositories\mobilecap\ResultsAnalysis
DataRate	CameraRate	NumFrames	NumMarkers	Units	OrigDataRate	OrigDataStartFrame	OrigNumFrames
100.0	100.0	4	51	mm	100.0	106	280
Frame#	Time	r_knee			r_shank_antsup			r_ankle			r_calc			r_5meta			r_toe			L_knee			L_shank_antsup			L_ankle			L_calc			L_5meta			L_toe			r_sh2			r_sh3			r_sh4			L_sh2			L_sh3			r_thigh1			r_thigh2			r_thigh3			r_thigh4			r_thigh5			L_thigh1			L_thigh2			L_thigh3			L_thigh4			r.ASIS			r.PSIS			L.ASIS			L.PSIS			C7			R_Shoulder			L_Shoulder			R_Sternum			L_Sternum			R_humerus			R_elbow_med			R_elbow_lat			R_forearm			R_wrist_radius			R_wrist_ulna			L_humerus			L_elbow_med			L_elbow_lat			L_forearm			L_wrist_radius			L_wrist_ulna			R_HJC			L_HJC			R_HJC_reg			L_HJC_reg			
		X1	Y1	Z1	X2	Y2	Z2	X3	Y3	Z3	X4	Y4	Z4	X5	Y5	Z5	X6	Y6	Z6	X7	Y7	Z7	X8	Y8	Z8	X9	Y9	Z9	X10	Y10	Z10	X11	Y11	Z11	X12	Y12	Z12	X13	Y13	Z13	X14	Y14	Z14	X15	Y15	Z15	X16	Y16	Z16	X17	Y17	Z17	X18	Y18	Z18	X19	Y19	Z19	X20	Y20	Z20	X21	Y21	Z21	X22	Y22	Z22	X23	Y23	Z23	X24	Y24	Z24	X25	Y25	Z25	X26	Y26	Z26	X27	Y27	Z27	X28	Y28	Z28	X29	Y29	Z29	X30	Y30	Z30	X31	Y31	Z31	X32	Y32	Z32	X33	Y33	Z33	X34	Y34	Z34	X35	Y35	Z35	X36	Y36	Z36	X37	Y37	Z37	X38	Y38	Z38	X39	Y39	Z39	X40	Y40	Z40	X41	Y41	Z41	X42	Y42	Z42	X43	Y43	Z43	X44	Y44	Z44	X45	Y45	Z45	X46	Y46	Z46	X47	Y47	Z47	X48	Y48	Z48	X49	Y49	Z49	X50	Y50	Z50	X51	Y51	Z51	

106	1.05000000	-674.13786	1025.34734	-414.28935	-676.14102	900.24421	-427.01067	-876.23503	619.24472	-451.05225	-931.79029	649.05635	-508.42347	-850.24980	460.37088	-433.83458	-789.91382	458.95274	-490.84058	-699.86417	1040.13464	-770.45907	-716.05798	930.17309	-753.98285	-992.13074	712.04609	-718.72761	-1044.03966	750.07778	-661.09526	-982.51902	544.46326	-717.31273	-931.21727	543.97538	-659.48971	-710.32516	792.65667	-448.41247	-740.68725	910.26472	-385.38683	-772.54649	798.40591	-392.64652	-784.33230	979.59506	-785.57961	-841.48390	871.82828	-791.15124	-586.08355	1264.65479	-424.35405	-581.63455	1152.59494	-440.74166	-609.54828	1120.59385	-388.59162	-674.65327	1246.41896	-355.77139	-663.44073	1130.66637	-376.61783	-623.25793	1292.54419	-773.85160	-603.32123	1156.48300	-770.55664	-729.64639	1276.14543	-808.61490	-709.33709	1139.13494	-802.51291	-626.36884	1526.98684	-435.19964	-819.03196	1603.35499	-512.53766	-634.30504	1535.84657	-698.94158	-822.82856	1612.30522	-611.32135	-672.45754	2084.39838	-553.12894	-625.96132	2026.33826	-381.01781	-613.20177	2054.85990	-709.32411	-548.31988	1978.20117	-527.69679	-552.84641	1976.73749	-570.64791	-676.82221	1938.36537	-251.97367	-832.38563	1768.89094	-174.44839	-820.23980	1849.22357	-129.46446	-671.05725	1783.61904	-66.12092	-585.58042	1730.01840	-8.56315	-608.44785	1726.89647	26.99628	-631.75501	1996.63557	-873.26781	-722.28096	1824.17728	-1013.06263	-693.99440	1903.53898	-1041.26156	-536.14782	1882.56668	-995.02992	-418.84972	1868.18175	-1001.78954	-419.46876	1857.94594	-1046.26590	-723.81145	1466.87168	-470.98752	-728.42539	1464.08505	-684.31095	-713.16070	1458.50475	-475.60536	-719.83136	1474.21736	-649.02409	
107	1.06000000	-662.66290	1030.14961	-414.36570	-661.66336	905.01670	-427.75481	-855.13891	619.23045	-453.29977	-911.52763	648.29702	-509.95182	-825.39823	460.74650	-437.80312	-765.02224	461.55960	-494.79566	-680.67636	1046.96726	-771.77520	-699.00220	936.94929	-753.97151	-981.41431	727.31838	-715.12430	-1033.44433	766.03339	-659.67668	-969.93330	560.79013	-712.98725	-919.55154	561.39719	-654.39610	-693.56979	796.19171	-450.91773	-726.49495	913.51372	-385.90428	-755.43138	800.63418	-393.98494	-765.77643	988.03153	-786.56061	-826.15394	882.06757	-790.53130	-576.86478	1270.12744	-423.54465	-571.31877	1158.10860	-440.11142	-599.02424	1125.73947	-388.26209	-665.32680	1251.03168	-355.02408	-653.12715	1135.32413	-376.28521	-609.83158	1301.31181	-774.49432	-586.31734	1165.87013	-771.55832	-716.01442	1282.07389	-809.19672	-691.71072	1145.73378	-803.97611	-618.21244	1531.09606	-434.33062	-810.37657	1607.48024	-511.05927	-626.50044	1540.64105	-698.05482	-815.66282	1615.73955	-609.65161	-659.11700	2089.07215	-552.98566	-613.18953	2030.28616	-380.26386	-601.38688	2057.84977	-709.58894	-537.08223	1981.68915	-526.94362	-547.10267	1976.61665	-562.23431	-666.34880	1943.44716	-251.68020	-827.55804	1779.43090	-174.61974	-813.12375	1858.74246	-129.75045	-670.23041	1785.73199	-59.46253	-589.73432	1727.75435	2.29093	-614.67322	1725.70600	36.29360	-624.11595	1997.92022	-872.75303	-719.84264	1827.33812	-1007.37824	-692.22183	1905.48150	-1038.65278	-532.30948	1879.35810	-1000.52192	-414.53461	1861.71842	-1013.91277	-419.64500	1852.09072	-1057.92173	-715.26121	1470.84736	-469.93124	-720.49685	1468.38327	-683.24539	-704.04334	1464.01840	-472.95707	-713.33590	1478.54547	-646.32927	
108	1.07000000	-651.29734	1033.93555	-414.46155	-647.54492	908.95106	-428.13448	-833.97334	618.43042	-455.33723	-890.90817	646.52009	-511.71091	-800.41195	460.44036	-441.26324	-739.83850	463.43647	-497.87177	-661.67663	1053.14044	-773.11976	-682.04912	943.10074	-754.04019	-970.19954	742.41676	-711.79062	-1022.64712	781.71867	-658.03208	-956.72340	576.84680	-709.29355	-907.22761	578.34748	-649.90019	-677.28490	798.79022	-452.88792	-712.97325	916.09457	-386.41421	-739.02619	802.41144	-394.96551	-747.41098	995.89824	-787.46091	-811.04072	891.97539	-789.75346	-567.75616	1274.41967	-422.85136	-561.05981	1162.64866	-439.27898	-588.61650	1129.90769	-387.78154	-656.16292	1254.61159	-354.30342	-642.93376	1138.94394	-375.96242	-596.98119	1309.19036	-775.76006	-570.06951	1174.50981	-773.07670	-703.26395	1287.07545	-809.68407	-674.88462	1151.62102	-805.30495	-610.02479	1534.02698	-433.45026	-801.79867	1610.74508	-509.49905	-618.76079	1544.40657	-697.22235	-808.92432	1617.35759	-608.29893	-645.74038	2092.52143	-552.54309	-600.43507	2033.22409	-379.53979	-589.44019	2059.84946	-709.91794	-525.31644	1983.97648	-526.53927	-535.19156	1978.61710	-561.75427	-655.69675	1947.75220	-251.42654	-822.15168	1789.19674	-174.57006	-805.42466	1867.37171	-129.71305	-669.63825	1787.11663	-52.72144	-594.94559	1724.50534	12.68799	-621.38510	1724.07639	45.25495	-615.94810	1998.11006	-872.02847	-717.32851	1829.99448	-1002.57230	-689.72534	1906.83442	-1035.65706	-528.68472	1875.01535	-1005.68221	-411.48178	1853.95739	-1025.61192	-420.12904	1845.25992	-1069.51674	-706.66400	1473.68342	-468.86384	-712.57071	1471.35775	-682.16116	-694.98519	1469.82243	-469.27885	-707.48628	1481.43919	-642.73367	
109	1.08000000	-639.98303	1036.64647	-414.46408	-633.82146	911.98684	-428.04179	-812.91146	616.83986	-457.20937	-870.11580	643.68298	-513.97298	-775.71722	459.28983	-444.25419	-714.58375	464.53745	-499.98381	-642.86560	1058.70819	-774.51148	-665.10208	948.75930	-754.26491	-958.40118	757.28610	-708.93833	-1011.63676	797.08409	-655.69989	-943.44450	592.28891	-706.03371	-894.31685	594.33687	-646.06652	-661.14432	801.08149	-453.23880	-699.77859	917.43989	-387.22608	-723.54632	803.84681	-395.08053	-729.14093	1003.23395	-787.98261	-795.93576	901.42645	-788.71213	-558.67751	1277.58568	-422.34022	-550.86960	1166.16551	-438.58810	-578.32390	1133.01086	-387.20557	-647.02298	1256.97797	-353.71406	-632.74460	1141.54129	-375.69176	-585.17848	1316.09977	-777.08476	-554.68506	1182.35197	-774.90536	-691.31819	1291.10514	-810.10047	-658.94531	1156.62963	-806.40920	-601.70276	1535.82908	-432.64303	-793.51711	1613.37081	-507.33134	-611.07016	1547.05900	-696.34266	-801.45879	1618.74656	-606.28228	-632.43570	2094.78110	-552.02346	-587.65146	2035.17480	-378.89896	-577.40653	2060.83474	-710.12193	-512.77929	1984.95253	-526.65572	-517.87382	1982.54072	-570.05214	-644.78331	1951.32177	-251.09100	-816.22587	1798.22643	-174.14681	-797.21811	1875.34082	-129.24026	-669.08212	1787.80203	-45.96374	-600.74518	1720.87234	22.66536	-628.50055	1722.15800	53.87363	-607.32624	1997.36148	-871.16392	-714.77202	1831.91196	-998.81758	-686.58582	1907.13081	-1032.21910	-524.98889	1869.44704	-1010.63873	-409.95681	1845.11142	-1037.13045	-420.87231	1837.59060	-1080.96101	-698.18933	1475.62954	-467.60288	-705.02527	1473.69492	-680.87570	-686.80508	1474.08350	-466.79361	-700.73250	1483.50802	-640.30139	
